<svg width="51" height="79" viewBox="0 0 51 79" fill="none" xmlns="http://www.w3.org/2000/svg">
<path d="M13.48 18.1731C13.48 18.1731 17.2488 14.5402 25.1156 14.5402C32.9824 14.5402 37.1094 18.3252 37.1094 18.3252L37.5597 18.6294C37.5597 18.6294 42.1732 10.5898 38.8111 3.73348C36.2332 2.15643 31.5567 0 25.1156 0C18.9335 0 14.3417 1.9976 11.7057 3.55453C8.05795 10.4175 12.9378 18.4549 12.9378 18.4549L13.48 18.1731V18.1731Z" fill="#FFAC33"/>
<path d="M41.297 5.5361L41.0888 5.35043C41.0041 5.27438 40.198 4.58316 38.8111 3.73535C38.9515 4.40196 39.1911 5.36609 39.3387 6.50246C39.7696 9.79749 39.5421 13.7233 37.1094 18.3248C36.5285 19.4231 35.8604 20.5483 35.0035 21.7249C33.5318 23.7427 29.8356 28.0734 25.3818 33.1446C22.344 36.6029 18.9601 40.4013 15.6778 44.0609C7.74324 52.9036 0.435585 60.894 0.290352 61.0528C-0.00979696 61.3772 -0.0824134 61.829 0.0967076 62.216L7.35837 77.8747C7.53265 78.246 7.91026 78.5033 8.34596 78.5458C8.38953 78.5503 8.42826 78.5525 8.47183 78.5525C8.86396 78.5525 9.2343 78.378 9.46183 78.076C9.5877 77.9105 17.4618 67.4483 25.3625 56.9435L35.0689 44.0341C38.615 39.3141 41.159 35.9273 41.4083 35.5829C45.0827 30.5251 49.2437 25.351 49.2437 19.8302C49.2437 14.2893 46.4963 9.34563 41.297 5.5361V5.5361Z" fill="#FFCC4D"/>
<path d="M13.6277 46.339L23.2252 59.7874L36.4124 42.2499L26.781 31.5439C26.3211 32.0696 14.303 45.5874 13.6277 46.339V46.339Z" fill="#FFAC33"/>
<path d="M9.25841 5.34859L9.46658 5.16293C9.55129 5.08687 10.3573 4.39565 11.7443 3.54785C11.6039 4.21446 11.3643 5.17858 11.2166 6.31495C10.7858 9.60997 11.0133 13.5358 13.446 18.1372C14.0269 19.2355 14.695 20.3607 15.5518 21.5374C17.0235 23.5551 20.7197 27.8858 25.1736 32.957C28.2114 36.4153 31.5953 40.2136 34.8776 43.8733C42.8121 52.7159 50.1198 60.7063 50.265 60.8651C50.5603 61.1894 50.6329 61.6413 50.4538 62.0305L43.1922 77.6891C43.0179 78.0605 42.6403 78.3177 42.2046 78.3602C42.161 78.3647 42.1223 78.3669 42.0787 78.3669C41.6866 78.3669 41.3162 78.1925 41.0887 77.8905C40.9628 77.7249 33.0888 67.2627 25.1881 56.7581L15.4817 43.8486C11.9355 39.1287 9.39154 35.742 9.14222 35.3975C5.46782 30.3397 1.30688 25.1657 1.30688 19.6449C1.31173 14.104 4.05906 9.15811 9.25841 5.34859V5.34859Z" fill="#FFCC4D"/>
</svg>
