<svg width="80" height="79" viewBox="0 0 80 79" fill="none" xmlns="http://www.w3.org/2000/svg">
<path d="M17.6283 30.2356H12.4768C11.7659 30.2356 11.189 29.7024 11.189 29.0454V12.383C11.189 11.7261 11.7659 11.1929 12.4768 11.1929H17.6283C18.3392 11.1929 18.9162 11.7261 18.9162 12.383V29.0454C18.9162 29.7024 18.3392 30.2356 17.6283 30.2356Z" fill="#A0041E"/>
<path d="M6.43945 33.3254L39.924 2.38086L73.4086 33.3254V73.7913H6.43945V33.3254Z" fill="#FFE8B6"/>
<path d="M39.9238 33.3257H42.4996V71.4111H39.9238V33.3257Z" fill="#FFCC4D"/>
<path d="M73.4086 35.7059C72.7492 35.7059 72.0898 35.4727 71.5876 35.0085L39.924 5.74678L8.26046 35.0085C7.25335 35.9392 5.62549 35.9392 4.61837 35.0085C3.61126 34.0778 3.61126 32.5734 4.61837 31.6427L38.103 0.69804C39.1101 -0.23268 40.7379 -0.23268 41.7451 0.69804L75.2297 31.6427C76.2368 32.5734 76.2368 34.0778 75.2297 35.0085C74.7274 35.4727 74.068 35.7059 73.4086 35.7059Z" fill="#66757F"/>
<path d="M39.924 35.7061C39.2646 35.7061 38.6053 35.4728 38.103 35.0086C37.0959 34.0779 37.0959 32.5735 38.103 31.6427L54.8453 16.1702C55.8524 15.2395 57.4802 15.2395 58.4873 16.1702C59.4945 17.1009 59.4945 18.6054 58.4873 19.5361L41.7451 35.0086C41.2428 35.4728 40.5834 35.7061 39.924 35.7061Z" fill="#66757F"/>
<path d="M19.3181 57.1289H29.621V71.4109H19.3181V57.1289Z" fill="#C1694F"/>
<path d="M19.3181 35.7061H29.6211V45.2275H19.3181V35.7061ZM51.5148 35.7061H61.8177V45.2275H51.5148V35.7061ZM51.5148 57.1292H61.8177V66.6506H51.5148V57.1292Z" fill="#55ACEE"/>
<path d="M79.8479 74.9818C79.8479 76.9528 78.117 78.5525 75.9843 78.5525H3.86361C1.7309 78.5525 0 76.9528 0 74.9818C0 73.0108 1.7309 71.4111 3.86361 71.4111H75.9843C78.117 71.4111 79.8479 73.0108 79.8479 74.9818Z" fill="#5C913B"/>
</svg>
