<svg width="85" height="79" viewBox="0 0 85 79" fill="none" xmlns="http://www.w3.org/2000/svg">
<path d="M70.8334 56.7322C70.8334 61.5522 66.6046 65.4602 61.3889 65.4602H9.44445C4.22875 65.4602 0 61.5522 0 56.7322V8.72803C0 3.90797 4.22875 0 9.44445 0H61.3889C66.6046 0 70.8334 3.90797 70.8334 8.72803V56.7322Z" fill="#CCD6DC"/>
<path d="M66.1111 56.7324C66.1111 59.1414 63.9955 61.0964 61.3889 61.0964H9.44439C6.83772 61.0964 4.72217 59.1414 4.72217 56.7324V8.72827C4.72217 6.31934 6.83772 4.36426 9.44439 4.36426H61.3889C63.9955 4.36426 66.1111 6.31934 66.1111 8.72827V56.7324Z" fill="#F5F8FA"/>
<path d="M14.1668 56.7324C12.8611 56.7324 11.8057 55.7549 11.8057 54.5504V28.3661C11.8057 27.1616 12.8611 26.1841 14.1668 26.1841C15.4725 26.1841 16.528 27.1616 16.528 28.3661V54.5504C16.528 55.7549 15.4725 56.7324 14.1668 56.7324Z" fill="#50A5E6"/>
<path d="M23.6111 56.7324C22.3054 56.7324 21.25 55.7549 21.25 54.5504V17.4564C21.25 16.252 22.3054 15.2744 23.6111 15.2744C24.9168 15.2744 25.9722 16.252 25.9722 17.4564V54.5504C25.9722 55.7549 24.9168 56.7324 23.6111 56.7324Z" fill="#77B255"/>
<path d="M85 78.5525V68.7335C85 61.5023 76.5921 56.7324 68.7674 56.7324H40.434C32.6116 56.7324 23.6111 61.5023 23.6111 68.7335V78.5525H85Z" fill="#226798"/>
<path d="M66.7014 56.7324L59.1884 78.5525H49.5291L43.0903 56.7324" fill="#F4F7F9"/>
<path d="M44.8613 56.7324H41.3196L38.9585 68.7335L46.0418 70.9155L44.8613 78.5525H53.1252L44.8613 56.7324ZM64.9307 56.7324H68.4724L69.653 68.7335L62.5696 70.9155L63.7502 78.5525H55.4863L64.9307 56.7324Z" fill="#3A87C2"/>
<path d="M54.7776 8.68213C64.4676 8.68213 80.6246 13.1618 80.6246 32.5686C80.6246 51.9776 80.6246 56.4573 75.7773 56.4573C70.9299 56.4573 64.4676 51.9776 54.7752 51.9776C45.0805 51.9776 38.7551 56.4573 33.7708 56.4573C28.3709 56.4573 28.9234 38.5408 28.9234 32.5686C28.9281 13.1596 45.0852 8.68213 54.7776 8.68213" fill="#FAAA35"/>
<path d="M46.6436 56.732C49.0047 61.0568 53.2358 66.551 54.9075 66.551C56.5791 66.551 60.8386 60.9891 63.1714 56.732V48.8965H46.6436V56.732Z" fill="#FFDB5E"/>
<path d="M46.6436 52.4859C48.9456 54.8905 51.8026 55.5408 54.9051 55.5408C58.01 55.5408 60.8693 54.8905 63.1714 52.4859V46.374H46.6436V52.4859V52.4859Z" fill="#F8C954"/>
<path d="M35.3906 31.9162C35.3906 19.1864 44.0701 8.86768 54.7777 8.86768C65.4806 8.86768 74.16 19.1864 74.16 31.9162C74.16 44.6439 65.4806 54.3582 54.7777 54.3582C44.0701 54.3582 35.3906 44.6439 35.3906 31.9162Z" fill="#FFDB5E"/>
<path d="M54.7777 48.9905C50.9858 48.9905 49.0001 47.258 48.7876 47.0594C48.1548 46.4768 48.1548 45.532 48.7876 44.9495C49.4156 44.3712 50.4215 44.3669 51.0566 44.9342C51.1392 45.004 52.3576 46.0055 54.7777 46.0055C57.2285 46.0055 58.4492 44.9735 58.4988 44.932C59.1434 44.3734 60.1587 44.3909 60.7726 44.9735C61.3865 45.5604 61.3865 46.4812 60.7631 47.0572C60.553 47.258 58.5697 48.9905 54.7777 48.9905" fill="#DE2032"/>
<path d="M56.8816 42.3503H52.8913C52.3412 42.3503 51.8926 41.938 51.8926 41.4274V41.0936C51.8926 40.5852 52.3388 40.1685 52.8913 40.1685H56.8816C57.4317 40.1685 57.8827 40.583 57.8827 41.0936V41.4274C57.8827 41.938 57.4317 42.3503 56.8816 42.3503Z" fill="#C1694F"/>
<path d="M62.8718 36.6494C61.7738 36.6494 60.8743 35.818 60.8743 34.8012V32.9574C60.8743 31.9427 61.7738 31.1113 62.8718 31.1113C63.9697 31.1113 64.8693 31.9427 64.8693 32.9574V34.8012C64.8693 35.818 63.9697 36.6494 62.8718 36.6494ZM46.8989 36.6494C45.801 36.6494 44.9014 35.818 44.9014 34.8012V32.9574C44.9014 31.9427 45.801 31.1113 46.8989 31.1113C47.9991 31.1113 48.8987 31.9427 48.8987 32.9574V34.8012C48.8987 35.818 47.9991 36.6494 46.8989 36.6494Z" fill="#662213"/>
<path d="M30.6474 39.0776C30.5978 36.8956 30.5435 38.5889 30.5435 38.063C30.5435 30.5962 35.3909 39.1409 35.3909 33.8234C35.3909 28.5036 38.6209 27.969 41.8509 24.984C43.4682 23.4894 46.6982 20.5633 46.6982 20.5633C46.6982 20.5633 54.7756 25.0735 61.2379 25.0735C67.6979 25.0735 74.1626 28.0738 74.1626 34.0459C74.1626 40.0159 79.01 30.5896 79.01 38.0543C79.01 38.5867 78.958 36.8956 78.9155 39.0776H80.6132C80.6273 34.7136 80.6273 34.8795 80.6273 32.0908C80.6273 12.6841 64.4726 5.45508 54.7779 5.45508C45.0879 5.45508 28.9309 12.5619 28.9309 31.9708C28.9309 33.7012 28.8837 34.7136 28.9498 39.0776H30.6474V39.0776Z" fill="#FAAA35"/>
<path d="M78.1243 32.3915C78.1243 35.5511 76.3936 38.1128 74.2544 38.1128C72.1176 38.1128 70.3845 35.5511 70.3845 32.3915C70.3845 29.2319 72.1152 26.668 74.2544 26.668C76.3936 26.668 78.1243 29.2319 78.1243 32.3915V32.3915ZM39.428 32.3915C39.428 35.5511 37.6949 38.1128 35.5581 38.1128C33.4213 38.1128 31.6882 35.5511 31.6882 32.3915C31.6882 29.2319 33.4213 26.668 35.5581 26.668C37.6949 26.668 39.428 29.2319 39.428 32.3915Z" fill="#FFDB5E"/>
</svg>
