<svg width="57" height="79" viewBox="0 0 57 79" fill="none" xmlns="http://www.w3.org/2000/svg">
<path d="M30.6945 3.27302C30.6945 1.46413 29.1078 0 27.1528 0C25.1954 0 23.6111 1.46413 23.6111 3.27302V24.0021C23.6111 25.2066 22.5533 26.1842 21.25 26.1842C19.9467 26.1842 18.8889 25.2066 18.8889 24.0021V3.27302C18.8889 1.46413 17.3046 0 15.3472 0C13.3899 0 11.8056 1.46413 11.8056 3.27302V24.0021C11.8056 25.2066 10.7478 26.1842 9.44445 26.1842C8.14111 26.1842 7.08334 25.2066 7.08334 24.0021V3.27302C7.08334 1.46413 5.49903 0 3.54167 0C1.58431 0 0 1.46413 0 3.27302V22.9111C0 23.1883 0.0495836 23.4545 0.120417 23.7119C0.0495836 24.1636 0 24.6218 0 25.0932C0 30.1467 4.13195 38.0914 9.44445 39.1497V73.0975C9.44445 76.1108 12.0865 78.5525 15.3472 78.5525C18.6079 78.5525 21.25 76.1108 21.25 73.0975V39.1497C26.5625 38.0914 30.6945 30.1467 30.6945 25.0932C30.6945 24.6218 30.6449 24.1636 30.574 23.7119C30.6449 23.4545 30.6945 23.1883 30.6945 22.9111V3.27302ZM50.7639 0C50.5183 0 50.2822 0.0414583 50.0414 0.0676424C49.8903 0.0458223 49.7415 0 49.5833 0C44.3677 0 37.7778 11.9509 37.7778 24.0021C37.7778 34.166 40.7882 42.6802 44.8611 45.1066V73.0975C44.8611 76.1108 47.5032 78.5525 50.7639 78.5525C54.0246 78.5525 56.6667 76.1108 56.6667 73.0975V5.45503C56.6667 2.44167 54.0246 0 50.7639 0Z" fill="#99AAB5"/>
</svg>
