<svg width="104" height="79" viewBox="0 0 104 79" fill="none" xmlns="http://www.w3.org/2000/svg">
<path d="M42.5 53.3032H60.7142V64.5251H42.5V53.3032Z" fill="#F4900C"/>
<path d="M88.0356 30.8596C88.0356 50.4977 97.1427 42.0814 97.1427 50.4977C97.1427 50.4977 97.1427 56.1086 91.0713 56.1086H12.1427C6.07129 56.1086 6.07129 50.4977 6.07129 50.4977C6.07129 42.0814 15.1784 50.4977 15.1784 30.8596C15.1784 15.3651 34.8407 8.41602 51.607 8.41602C68.3732 8.41602 88.0356 15.3651 88.0356 30.8596Z" fill="#FFAC33"/>
<path d="M51.6071 16.8325C56.6368 16.8325 60.7142 13.0644 60.7142 8.41626C60.7142 3.76809 56.6368 0 51.6071 0C46.5774 0 42.5 3.76809 42.5 8.41626C42.5 13.0644 46.5774 16.8325 51.6071 16.8325Z" fill="#FFAC33"/>
<path d="M103.214 72.941C103.214 76.0383 100.494 78.552 97.1428 78.552H6.07143C2.72 78.552 0 76.0383 0 72.941C0 69.8438 2.72 67.3301 6.07143 67.3301H97.1428C100.494 67.3301 103.214 69.8438 103.214 72.941Z" fill="#C1694F"/>
<path d="M97.1427 67.3304C97.1427 70.4276 94.4227 72.9412 91.0713 72.9412H12.1427C8.79129 72.9412 6.07129 70.4276 6.07129 67.3304C6.07129 64.2333 8.79129 61.7197 12.1427 61.7197H91.0713C94.4227 61.7197 97.1427 64.2333 97.1427 67.3304Z" fill="#C1694F"/>
</svg>
