<svg width="163" height="34" viewBox="0 0 163 34" fill="none" xmlns="http://www.w3.org/2000/svg">
<path d="M27.6152 5.48145H31.0137L37.1953 15.8232L43.377 5.48145H46.79L38.6602 18.3281V27H35.7451V18.3281L27.6152 5.48145ZM49.5732 5.48145H65.2617V8.11816H52.415V14.6514H64.2949V17.1416H52.415V24.4365H65.4814V27H49.5732V5.48145ZM71.209 20.0566C71.2773 21.2773 71.5654 22.2686 72.0732 23.0303C73.04 24.4561 74.7441 25.1689 77.1855 25.1689C78.2793 25.1689 79.2754 25.0127 80.1738 24.7002C81.9121 24.0947 82.7812 23.0107 82.7812 21.4482C82.7812 20.2764 82.415 19.4414 81.6826 18.9434C80.9404 18.4551 79.7783 18.0303 78.1963 17.6689L75.2812 17.0098C73.377 16.5801 72.0293 16.1064 71.2383 15.5889C69.8711 14.6904 69.1875 13.3477 69.1875 11.5605C69.1875 9.62695 69.8564 8.04004 71.1943 6.7998C72.5322 5.55957 74.4268 4.93945 76.8779 4.93945C79.1338 4.93945 81.0479 5.48633 82.6201 6.58008C84.2021 7.66406 84.9932 9.40234 84.9932 11.7949H82.2539C82.1074 10.6426 81.7949 9.75879 81.3164 9.14355C80.4277 8.02051 78.9189 7.45898 76.79 7.45898C75.0713 7.45898 73.8359 7.82031 73.084 8.54297C72.332 9.26562 71.9561 10.1055 71.9561 11.0625C71.9561 12.1172 72.3955 12.8887 73.2744 13.377C73.8506 13.6895 75.1543 14.0801 77.1855 14.5488L80.2031 15.2373C81.6582 15.5693 82.7812 16.0234 83.5723 16.5996C84.9395 17.6055 85.623 19.0654 85.623 20.9795C85.623 23.3623 84.7539 25.0664 83.0156 26.0918C81.2871 27.1172 79.2754 27.6299 76.9805 27.6299C74.3047 27.6299 72.21 26.9463 70.6963 25.5791C69.1826 24.2217 68.4404 22.3809 68.4697 20.0566H71.209ZM89.3145 5.48145H92.2295V24.4365H103.128V27H89.3145V5.48145ZM106.292 5.48145H121.98V8.11816H109.134V14.6514H121.014V17.1416H109.134V24.4365H122.2V27H106.292V5.48145ZM137.068 18.1816L133.802 8.6748L130.33 18.1816H137.068ZM132.278 5.48145H135.574L143.382 27H140.188L138.006 20.5547H129.495L127.166 27H124.178L132.278 5.48145ZM146.312 5.48145H161.238V8.11816H149.227V14.6514H159.788V17.2148H149.227V27H146.312V5.48145Z" fill="#006CFE"/>
<path d="M20.5852 18.7074C20.5852 24.3918 15.9771 29 10.2926 29C4.60816 29 0 24.3918 0 18.7074C0 17.2877 -6.76951e-07 12.3188 9.93769 6.9951C21.65 0.72069 20.5852 4.1557 20.5852 18.7074Z" fill="#006CFE"/>
<line x1="5.32759" y1="26.786" x2="12.6333" y2="14.4446" stroke="white" stroke-width="2" stroke-linecap="round"/>
<line x1="7.22007" y1="14.6658" x2="10.103" y2="18.8708" stroke="white" stroke-width="2" stroke-linecap="round"/>
<line x1="8.81796" y1="23.041" x2="13.9161" y2="23.0909" stroke="white" stroke-width="2" stroke-linecap="round"/>
</svg>
